<svg width="40" height="40" viewBox="0 0 40 40" fill="none" xmlns="http://www.w3.org/2000/svg">
<g clip-path="url(#clip0_217_30)">
<path d="M35 40H5C2.24 40 0 37.76 0 35V5C0 2.24 2.24 0 5 0H35C37.76 0 40 2.24 40 5V35C40 37.76 37.76 40 35 40Z" fill="#1DA1F2"/>
<path d="M15.36 30.1601C24.79 30.1601 29.95 22.3401 29.95 15.5701C29.95 15.3501 29.95 15.1301 29.94 14.9101C30.94 14.1901 31.81 13.2801 32.5 12.2501C31.58 12.6601 30.59 12.9301 29.55 13.0601C30.61 12.4301 31.42 11.4201 31.81 10.2201C30.82 10.8101 29.72 11.2301 28.55 11.4601C27.61 10.4601 26.28 9.84009 24.81 9.84009C21.98 9.84009 19.68 12.1401 19.68 14.9701C19.68 15.3701 19.73 15.7601 19.81 16.1401C15.55 15.9301 11.77 13.8801 9.24001 10.7801C8.80001 11.5401 8.55001 12.4201 8.55001 13.3601C8.55001 15.1401 9.46001 16.7101 10.83 17.6301C9.99001 17.6001 9.20001 17.3701 8.51001 16.9901V17.0601C8.51001 19.5401 10.28 21.6201 12.62 22.0901C12.19 22.2101 11.74 22.2701 11.27 22.2701C10.94 22.2701 10.62 22.2401 10.31 22.1801C10.96 24.2201 12.86 25.7001 15.1 25.7401C13.34 27.1201 11.13 27.9401 8.73001 27.9401C8.32001 27.9401 7.91001 27.9201 7.51001 27.8701C9.77001 29.3101 12.47 30.1601 15.36 30.1601Z" fill="white"/>
</g>
<defs>
<clipPath id="clip0_217_30">
<rect width="40" height="40" fill="white"/>
</clipPath>
</defs>
</svg>
